<?xml version="1.0" ?><!DOCTYPE svg  PUBLIC '-//W3C//DTD SVG 1.1//EN'  'http://www.w3.org/Graphics/SVG/1.1/DTD/svg11.dtd'><svg xmlns="http://www.w3.org/2000/svg" width="342.000" height="792.000" viewBox="-6.000 -6.000 342.000 792.000"><circle cx="15.0" cy="75.0" r="10.0" stroke="#000" fill="#7a378b"/><circle cx="15.0" cy="125.0" r="10.0" stroke="#000" fill="#40e0d0"/><circle cx="15.0" cy="175.0" r="10.0" stroke="#000" fill="#8b7d6b"/><circle cx="15.0" cy="225.0" r="10.0" stroke="#000" fill="#00b2ee"/><circle cx="15.0" cy="275.0" r="10.0" stroke="#000" fill="#8b8970"/><circle cx="15.0" cy="325.0" r="10.0" stroke="#000" fill="#caff70"/><circle cx="15.0" cy="375.0" r="10.0" stroke="#000" fill="#faf0e6"/><circle cx="15.0" cy="425.0" r="10.0" stroke="#000" fill="#caff70"/><circle cx="15.0" cy="475.0" r="10.0" stroke="#000" fill="#eead0e"/><circle cx="15.0" cy="525.0" r="10.0" stroke="#000" fill="#cd9b9b"/><circle cx="15.0" cy="575.0" r="10.0" stroke="#000" fill="#ee6363"/><circle cx="15.0" cy="625.0" r="10.0" stroke="#000" fill="#ff4500"/><circle cx="15.0" cy="675.0" r="10.0" stroke="#000" fill="#458b74"/><circle cx="115.0" cy="15.0" r="10.0" stroke="#000" fill="#eedd82"/><circle cx="115.0" cy="65.0" r="10.0" stroke="#000" fill="#cdc0b0"/><circle cx="115.0" cy="115.0" r="10.0" stroke="#000" fill="#8a2be2"/><circle cx="115.0" cy="165.0" r="10.0" stroke="#000" fill="#8b5a2b"/><circle cx="115.0" cy="215.0" r="10.0" stroke="#000" fill="#cdbe70"/><circle cx="115.0" cy="265.0" r="10.0" stroke="#000" fill="#b452cd"/><circle cx="115.0" cy="315.0" r="10.0" stroke="#000" fill="#668b8b"/><circle cx="115.0" cy="365.0" r="10.0" stroke="#000" fill="#8b2323"/><circle cx="115.0" cy="415.0" r="10.0" stroke="#000" fill="#8b475d"/><circle cx="115.0" cy="465.0" r="10.0" stroke="#000" fill="#bcd2ee"/><circle cx="115.0" cy="515.0" r="10.0" stroke="#000" fill="#b8860b"/><circle cx="115.0" cy="565.0" r="10.0" stroke="#000" fill="#bff"/><circle cx="115.0" cy="615.0" r="10.0" stroke="#000" fill="#ff4040"/><circle cx="115.0" cy="665.0" r="10.0" stroke="#000" fill="#4a708b"/><circle cx="115.0" cy="715.0" r="10.0" stroke="#000" fill="#cd9b9b"/><circle cx="115.0" cy="765.0" r="10.0" stroke="#000" fill="#ee4000"/><circle cx="215.0" cy="175.0" r="10.0" stroke="#000" fill="#c0ff3e"/><circle cx="215.0" cy="225.0" r="10.0" stroke="#000" fill="#fff68f"/><circle cx="215.0" cy="275.0" r="10.0" stroke="#000" fill="#eec591"/><circle cx="215.0" cy="325.0" r="10.0" stroke="#000" fill="#8b8b83"/><circle cx="215.0" cy="375.0" r="10.0" stroke="#000" fill="#8b8878"/><circle cx="215.0" cy="425.0" r="10.0" stroke="#000" fill="#eeb4b4"/><circle cx="215.0" cy="475.0" r="10.0" stroke="#000" fill="#fbf"/><circle cx="215.0" cy="525.0" r="10.0" stroke="#000" fill="#f5f5f5"/><circle cx="315.0" cy="255.0" r="10.0" stroke="#000" fill="#c6e2ff"/><circle cx="315.0" cy="305.0" r="10.0" stroke="#000" fill="#ff7f50"/><circle cx="315.0" cy="355.0" r="10.0" stroke="#000" fill="#cd6889"/><circle cx="315.0" cy="405.0" r="10.0" stroke="#000" fill="#8968cd"/><line x1="25.0" y1="75.0" x2="105.0" y2="15.0" stroke="#7a378b" fill="none"/><line x1="25.0" y1="75.0" x2="105.0" y2="65.0" stroke="#7a378b" fill="none"/><line x1="25.0" y1="75.0" x2="105.0" y2="115.0" stroke="#7a378b" fill="none"/><line x1="25.0" y1="75.0" x2="105.0" y2="165.0" stroke="#7a378b" fill="none"/><line x1="25.0" y1="75.0" x2="105.0" y2="215.0" stroke="#7a378b" fill="none"/><line x1="25.0" y1="75.0" x2="105.0" y2="265.0" stroke="#7a378b" fill="none"/><line x1="25.0" y1="75.0" x2="105.0" y2="315.0" stroke="#7a378b" fill="none"/><line x1="25.0" y1="75.0" x2="105.0" y2="365.0" stroke="#7a378b" fill="none"/><line x1="25.0" y1="75.0" x2="105.0" y2="415.0" stroke="#7a378b" fill="none"/><line x1="25.0" y1="75.0" x2="105.0" y2="465.0" stroke="#7a378b" fill="none"/><line x1="25.0" y1="75.0" x2="105.0" y2="515.0" stroke="#7a378b" fill="none"/><line x1="25.0" y1="75.0" x2="105.0" y2="565.0" stroke="#7a378b" fill="none"/><line x1="25.0" y1="75.0" x2="105.0" y2="615.0" stroke="#7a378b" fill="none"/><line x1="25.0" y1="75.0" x2="105.0" y2="665.0" stroke="#7a378b" fill="none"/><line x1="25.0" y1="75.0" x2="105.0" y2="715.0" stroke="#7a378b" fill="none"/><line x1="25.0" y1="75.0" x2="105.0" y2="765.0" stroke="#7a378b" fill="none"/><line x1="25.0" y1="125.0" x2="105.0" y2="15.0" stroke="#40e0d0" fill="none"/><line x1="25.0" y1="125.0" x2="105.0" y2="65.0" stroke="#40e0d0" fill="none"/><line x1="25.0" y1="125.0" x2="105.0" y2="115.0" stroke="#40e0d0" fill="none"/><line x1="25.0" y1="125.0" x2="105.0" y2="165.0" stroke="#40e0d0" fill="none"/><line x1="25.0" y1="125.0" x2="105.0" y2="215.0" stroke="#40e0d0" fill="none"/><line x1="25.0" y1="125.0" x2="105.0" y2="265.0" stroke="#40e0d0" fill="none"/><line x1="25.0" y1="125.0" x2="105.0" y2="315.0" stroke="#40e0d0" fill="none"/><line x1="25.0" y1="125.0" x2="105.0" y2="365.0" stroke="#40e0d0" fill="none"/><line x1="25.0" y1="125.0" x2="105.0" y2="415.0" stroke="#40e0d0" fill="none"/><line x1="25.0" y1="125.0" x2="105.0" y2="465.0" stroke="#40e0d0" fill="none"/><line x1="25.0" y1="125.0" x2="105.0" y2="515.0" stroke="#40e0d0" fill="none"/><line x1="25.0" y1="125.0" x2="105.0" y2="565.0" stroke="#40e0d0" fill="none"/><line x1="25.0" y1="125.0" x2="105.0" y2="615.0" stroke="#40e0d0" fill="none"/><line x1="25.0" y1="125.0" x2="105.0" y2="665.0" stroke="#40e0d0" fill="none"/><line x1="25.0" y1="125.0" x2="105.0" y2="715.0" stroke="#40e0d0" fill="none"/><line x1="25.0" y1="125.0" x2="105.0" y2="765.0" stroke="#40e0d0" fill="none"/><line x1="25.0" y1="175.0" x2="105.0" y2="15.0" stroke="#8b7d6b" fill="none"/><line x1="25.0" y1="175.0" x2="105.0" y2="65.0" stroke="#8b7d6b" fill="none"/><line x1="25.0" y1="175.0" x2="105.0" y2="115.0" stroke="#8b7d6b" fill="none"/><line x1="25.0" y1="175.0" x2="105.0" y2="165.0" stroke="#8b7d6b" fill="none"/><line x1="25.0" y1="175.0" x2="105.0" y2="215.0" stroke="#8b7d6b" fill="none"/><line x1="25.0" y1="175.0" x2="105.0" y2="265.0" stroke="#8b7d6b" fill="none"/><line x1="25.0" y1="175.0" x2="105.0" y2="315.0" stroke="#8b7d6b" fill="none"/><line x1="25.0" y1="175.0" x2="105.0" y2="365.0" stroke="#8b7d6b" fill="none"/><line x1="25.0" y1="175.0" x2="105.0" y2="415.0" stroke="#8b7d6b" fill="none"/><line x1="25.0" y1="175.0" x2="105.0" y2="465.0" stroke="#8b7d6b" fill="none"/><line x1="25.0" y1="175.0" x2="105.0" y2="515.0" stroke="#8b7d6b" fill="none"/><line x1="25.0" y1="175.0" x2="105.0" y2="565.0" stroke="#8b7d6b" fill="none"/><line x1="25.0" y1="175.0" x2="105.0" y2="615.0" stroke="#8b7d6b" fill="none"/><line x1="25.0" y1="175.0" x2="105.0" y2="665.0" stroke="#8b7d6b" fill="none"/><line x1="25.0" y1="175.0" x2="105.0" y2="715.0" stroke="#8b7d6b" fill="none"/><line x1="25.0" y1="175.0" x2="105.0" y2="765.0" stroke="#8b7d6b" fill="none"/><line x1="25.0" y1="225.0" x2="105.0" y2="15.0" stroke="#00b2ee" fill="none"/><line x1="25.0" y1="225.0" x2="105.0" y2="65.0" stroke="#00b2ee" fill="none"/><line x1="25.0" y1="225.0" x2="105.0" y2="115.0" stroke="#00b2ee" fill="none"/><line x1="25.0" y1="225.0" x2="105.0" y2="165.0" stroke="#00b2ee" fill="none"/><line x1="25.0" y1="225.0" x2="105.0" y2="215.0" stroke="#00b2ee" fill="none"/><line x1="25.0" y1="225.0" x2="105.0" y2="265.0" stroke="#00b2ee" fill="none"/><line x1="25.0" y1="225.0" x2="105.0" y2="315.0" stroke="#00b2ee" fill="none"/><line x1="25.0" y1="225.0" x2="105.0" y2="365.0" stroke="#00b2ee" fill="none"/><line x1="25.0" y1="225.0" x2="105.0" y2="415.0" stroke="#00b2ee" fill="none"/><line x1="25.0" y1="225.0" x2="105.0" y2="465.0" stroke="#00b2ee" fill="none"/><line x1="25.0" y1="225.0" x2="105.0" y2="515.0" stroke="#00b2ee" fill="none"/><line x1="25.0" y1="225.0" x2="105.0" y2="565.0" stroke="#00b2ee" fill="none"/><line x1="25.0" y1="225.0" x2="105.0" y2="615.0" stroke="#00b2ee" fill="none"/><line x1="25.0" y1="225.0" x2="105.0" y2="665.0" stroke="#00b2ee" fill="none"/><line x1="25.0" y1="225.0" x2="105.0" y2="715.0" stroke="#00b2ee" fill="none"/><line x1="25.0" y1="225.0" x2="105.0" y2="765.0" stroke="#00b2ee" fill="none"/><line x1="25.0" y1="275.0" x2="105.0" y2="15.0" stroke="#8b8970" fill="none"/><line x1="25.0" y1="275.0" x2="105.0" y2="65.0" stroke="#8b8970" fill="none"/><line x1="25.0" y1="275.0" x2="105.0" y2="115.0" stroke="#8b8970" fill="none"/><line x1="25.0" y1="275.0" x2="105.0" y2="165.0" stroke="#8b8970" fill="none"/><line x1="25.0" y1="275.0" x2="105.0" y2="215.0" stroke="#8b8970" fill="none"/><line x1="25.0" y1="275.0" x2="105.0" y2="265.0" stroke="#8b8970" fill="none"/><line x1="25.0" y1="275.0" x2="105.0" y2="315.0" stroke="#8b8970" fill="none"/><line x1="25.0" y1="275.0" x2="105.0" y2="365.0" stroke="#8b8970" fill="none"/><line x1="25.0" y1="275.0" x2="105.0" y2="415.0" stroke="#8b8970" fill="none"/><line x1="25.0" y1="275.0" x2="105.0" y2="465.0" stroke="#8b8970" fill="none"/><line x1="25.0" y1="275.0" x2="105.0" y2="515.0" stroke="#8b8970" fill="none"/><line x1="25.0" y1="275.0" x2="105.0" y2="565.0" stroke="#8b8970" fill="none"/><line x1="25.0" y1="275.0" x2="105.0" y2="615.0" stroke="#8b8970" fill="none"/><line x1="25.0" y1="275.0" x2="105.0" y2="665.0" stroke="#8b8970" fill="none"/><line x1="25.0" y1="275.0" x2="105.0" y2="715.0" stroke="#8b8970" fill="none"/><line x1="25.0" y1="275.0" x2="105.0" y2="765.0" stroke="#8b8970" fill="none"/><line x1="25.0" y1="325.0" x2="105.0" y2="15.0" stroke="#caff70" fill="none"/><line x1="25.0" y1="325.0" x2="105.0" y2="65.0" stroke="#caff70" fill="none"/><line x1="25.0" y1="325.0" x2="105.0" y2="115.0" stroke="#caff70" fill="none"/><line x1="25.0" y1="325.0" x2="105.0" y2="165.0" stroke="#caff70" fill="none"/><line x1="25.0" y1="325.0" x2="105.0" y2="215.0" stroke="#caff70" fill="none"/><line x1="25.0" y1="325.0" x2="105.0" y2="265.0" stroke="#caff70" fill="none"/><line x1="25.0" y1="325.0" x2="105.0" y2="315.0" stroke="#caff70" fill="none"/><line x1="25.0" y1="325.0" x2="105.0" y2="365.0" stroke="#caff70" fill="none"/><line x1="25.0" y1="325.0" x2="105.0" y2="415.0" stroke="#caff70" fill="none"/><line x1="25.0" y1="325.0" x2="105.0" y2="465.0" stroke="#caff70" fill="none"/><line x1="25.0" y1="325.0" x2="105.0" y2="515.0" stroke="#caff70" fill="none"/><line x1="25.0" y1="325.0" x2="105.0" y2="565.0" stroke="#caff70" fill="none"/><line x1="25.0" y1="325.0" x2="105.0" y2="615.0" stroke="#caff70" fill="none"/><line x1="25.0" y1="325.0" x2="105.0" y2="665.0" stroke="#caff70" fill="none"/><line x1="25.0" y1="325.0" x2="105.0" y2="715.0" stroke="#caff70" fill="none"/><line x1="25.0" y1="325.0" x2="105.0" y2="765.0" stroke="#caff70" fill="none"/><line x1="25.0" y1="375.0" x2="105.0" y2="15.0" stroke="#faf0e6" fill="none"/><line x1="25.0" y1="375.0" x2="105.0" y2="65.0" stroke="#faf0e6" fill="none"/><line x1="25.0" y1="375.0" x2="105.0" y2="115.0" stroke="#faf0e6" fill="none"/><line x1="25.0" y1="375.0" x2="105.0" y2="165.0" stroke="#faf0e6" fill="none"/><line x1="25.0" y1="375.0" x2="105.0" y2="215.0" stroke="#faf0e6" fill="none"/><line x1="25.0" y1="375.0" x2="105.0" y2="265.0" stroke="#faf0e6" fill="none"/><line x1="25.0" y1="375.0" x2="105.0" y2="315.0" stroke="#faf0e6" fill="none"/><line x1="25.0" y1="375.0" x2="105.0" y2="365.0" stroke="#faf0e6" fill="none"/><line x1="25.0" y1="375.0" x2="105.0" y2="415.0" stroke="#faf0e6" fill="none"/><line x1="25.0" y1="375.0" x2="105.0" y2="465.0" stroke="#faf0e6" fill="none"/><line x1="25.0" y1="375.0" x2="105.0" y2="515.0" stroke="#faf0e6" fill="none"/><line x1="25.0" y1="375.0" x2="105.0" y2="565.0" stroke="#faf0e6" fill="none"/><line x1="25.0" y1="375.0" x2="105.0" y2="615.0" stroke="#faf0e6" fill="none"/><line x1="25.0" y1="375.0" x2="105.0" y2="665.0" stroke="#faf0e6" fill="none"/><line x1="25.0" y1="375.0" x2="105.0" y2="715.0" stroke="#faf0e6" fill="none"/><line x1="25.0" y1="375.0" x2="105.0" y2="765.0" stroke="#faf0e6" fill="none"/><line x1="25.0" y1="425.0" x2="105.0" y2="15.0" stroke="#caff70" fill="none"/><line x1="25.0" y1="425.0" x2="105.0" y2="65.0" stroke="#caff70" fill="none"/><line x1="25.0" y1="425.0" x2="105.0" y2="115.0" stroke="#caff70" fill="none"/><line x1="25.0" y1="425.0" x2="105.0" y2="165.0" stroke="#caff70" fill="none"/><line x1="25.0" y1="425.0" x2="105.0" y2="215.0" stroke="#caff70" fill="none"/><line x1="25.0" y1="425.0" x2="105.0" y2="265.0" stroke="#caff70" fill="none"/><line x1="25.0" y1="425.0" x2="105.0" y2="315.0" stroke="#caff70" fill="none"/><line x1="25.0" y1="425.0" x2="105.0" y2="365.0" stroke="#caff70" fill="none"/><line x1="25.0" y1="425.0" x2="105.0" y2="415.0" stroke="#caff70" fill="none"/><line x1="25.0" y1="425.0" x2="105.0" y2="465.0" stroke="#caff70" fill="none"/><line x1="25.0" y1="425.0" x2="105.0" y2="515.0" stroke="#caff70" fill="none"/><line x1="25.0" y1="425.0" x2="105.0" y2="565.0" stroke="#caff70" fill="none"/><line x1="25.0" y1="425.0" x2="105.0" y2="615.0" stroke="#caff70" fill="none"/><line x1="25.0" y1="425.0" x2="105.0" y2="665.0" stroke="#caff70" fill="none"/><line x1="25.0" y1="425.0" x2="105.0" y2="715.0" stroke="#caff70" fill="none"/><line x1="25.0" y1="425.0" x2="105.0" y2="765.0" stroke="#caff70" fill="none"/><line x1="25.0" y1="475.0" x2="105.0" y2="15.0" stroke="#eead0e" fill="none"/><line x1="25.0" y1="475.0" x2="105.0" y2="65.0" stroke="#eead0e" fill="none"/><line x1="25.0" y1="475.0" x2="105.0" y2="115.0" stroke="#eead0e" fill="none"/><line x1="25.0" y1="475.0" x2="105.0" y2="165.0" stroke="#eead0e" fill="none"/><line x1="25.0" y1="475.0" x2="105.0" y2="215.0" stroke="#eead0e" fill="none"/><line x1="25.0" y1="475.0" x2="105.0" y2="265.0" stroke="#eead0e" fill="none"/><line x1="25.0" y1="475.0" x2="105.0" y2="315.0" stroke="#eead0e" fill="none"/><line x1="25.0" y1="475.0" x2="105.0" y2="365.0" stroke="#eead0e" fill="none"/><line x1="25.0" y1="475.0" x2="105.0" y2="415.0" stroke="#eead0e" fill="none"/><line x1="25.0" y1="475.0" x2="105.0" y2="465.0" stroke="#eead0e" fill="none"/><line x1="25.0" y1="475.0" x2="105.0" y2="515.0" stroke="#eead0e" fill="none"/><line x1="25.0" y1="475.0" x2="105.0" y2="565.0" stroke="#eead0e" fill="none"/><line x1="25.0" y1="475.0" x2="105.0" y2="615.0" stroke="#eead0e" fill="none"/><line x1="25.0" y1="475.0" x2="105.0" y2="665.0" stroke="#eead0e" fill="none"/><line x1="25.0" y1="475.0" x2="105.0" y2="715.0" stroke="#eead0e" fill="none"/><line x1="25.0" y1="475.0" x2="105.0" y2="765.0" stroke="#eead0e" fill="none"/><line x1="25.0" y1="525.0" x2="105.0" y2="15.0" stroke="#cd9b9b" fill="none"/><line x1="25.0" y1="525.0" x2="105.0" y2="65.0" stroke="#cd9b9b" fill="none"/><line x1="25.0" y1="525.0" x2="105.0" y2="115.0" stroke="#cd9b9b" fill="none"/><line x1="25.0" y1="525.0" x2="105.0" y2="165.0" stroke="#cd9b9b" fill="none"/><line x1="25.0" y1="525.0" x2="105.0" y2="215.0" stroke="#cd9b9b" fill="none"/><line x1="25.0" y1="525.0" x2="105.0" y2="265.0" stroke="#cd9b9b" fill="none"/><line x1="25.0" y1="525.0" x2="105.0" y2="315.0" stroke="#cd9b9b" fill="none"/><line x1="25.0" y1="525.0" x2="105.0" y2="365.0" stroke="#cd9b9b" fill="none"/><line x1="25.0" y1="525.0" x2="105.0" y2="415.0" stroke="#cd9b9b" fill="none"/><line x1="25.0" y1="525.0" x2="105.0" y2="465.0" stroke="#cd9b9b" fill="none"/><line x1="25.0" y1="525.0" x2="105.0" y2="515.0" stroke="#cd9b9b" fill="none"/><line x1="25.0" y1="525.0" x2="105.0" y2="565.0" stroke="#cd9b9b" fill="none"/><line x1="25.0" y1="525.0" x2="105.0" y2="615.0" stroke="#cd9b9b" fill="none"/><line x1="25.0" y1="525.0" x2="105.0" y2="665.0" stroke="#cd9b9b" fill="none"/><line x1="25.0" y1="525.0" x2="105.0" y2="715.0" stroke="#cd9b9b" fill="none"/><line x1="25.0" y1="525.0" x2="105.0" y2="765.0" stroke="#cd9b9b" fill="none"/><line x1="25.0" y1="575.0" x2="105.0" y2="15.0" stroke="#ee6363" fill="none"/><line x1="25.0" y1="575.0" x2="105.0" y2="65.0" stroke="#ee6363" fill="none"/><line x1="25.0" y1="575.0" x2="105.0" y2="115.0" stroke="#ee6363" fill="none"/><line x1="25.0" y1="575.0" x2="105.0" y2="165.0" stroke="#ee6363" fill="none"/><line x1="25.0" y1="575.0" x2="105.0" y2="215.0" stroke="#ee6363" fill="none"/><line x1="25.0" y1="575.0" x2="105.0" y2="265.0" stroke="#ee6363" fill="none"/><line x1="25.0" y1="575.0" x2="105.0" y2="315.0" stroke="#ee6363" fill="none"/><line x1="25.0" y1="575.0" x2="105.0" y2="365.0" stroke="#ee6363" fill="none"/><line x1="25.0" y1="575.0" x2="105.0" y2="415.0" stroke="#ee6363" fill="none"/><line x1="25.0" y1="575.0" x2="105.0" y2="465.0" stroke="#ee6363" fill="none"/><line x1="25.0" y1="575.0" x2="105.0" y2="515.0" stroke="#ee6363" fill="none"/><line x1="25.0" y1="575.0" x2="105.0" y2="565.0" stroke="#ee6363" fill="none"/><line x1="25.0" y1="575.0" x2="105.0" y2="615.0" stroke="#ee6363" fill="none"/><line x1="25.0" y1="575.0" x2="105.0" y2="665.0" stroke="#ee6363" fill="none"/><line x1="25.0" y1="575.0" x2="105.0" y2="715.0" stroke="#ee6363" fill="none"/><line x1="25.0" y1="575.0" x2="105.0" y2="765.0" stroke="#ee6363" fill="none"/><line x1="25.0" y1="625.0" x2="105.0" y2="15.0" stroke="#ff4500" fill="none"/><line x1="25.0" y1="625.0" x2="105.0" y2="65.0" stroke="#ff4500" fill="none"/><line x1="25.0" y1="625.0" x2="105.0" y2="115.0" stroke="#ff4500" fill="none"/><line x1="25.0" y1="625.0" x2="105.0" y2="165.0" stroke="#ff4500" fill="none"/><line x1="25.0" y1="625.0" x2="105.0" y2="215.0" stroke="#ff4500" fill="none"/><line x1="25.0" y1="625.0" x2="105.0" y2="265.0" stroke="#ff4500" fill="none"/><line x1="25.0" y1="625.0" x2="105.0" y2="315.0" stroke="#ff4500" fill="none"/><line x1="25.0" y1="625.0" x2="105.0" y2="365.0" stroke="#ff4500" fill="none"/><line x1="25.0" y1="625.0" x2="105.0" y2="415.0" stroke="#ff4500" fill="none"/><line x1="25.0" y1="625.0" x2="105.0" y2="465.0" stroke="#ff4500" fill="none"/><line x1="25.0" y1="625.0" x2="105.0" y2="515.0" stroke="#ff4500" fill="none"/><line x1="25.0" y1="625.0" x2="105.0" y2="565.0" stroke="#ff4500" fill="none"/><line x1="25.0" y1="625.0" x2="105.0" y2="615.0" stroke="#ff4500" fill="none"/><line x1="25.0" y1="625.0" x2="105.0" y2="665.0" stroke="#ff4500" fill="none"/><line x1="25.0" y1="625.0" x2="105.0" y2="715.0" stroke="#ff4500" fill="none"/><line x1="25.0" y1="625.0" x2="105.0" y2="765.0" stroke="#ff4500" fill="none"/><line x1="25.0" y1="675.0" x2="105.0" y2="15.0" stroke="#458b74" fill="none"/><line x1="25.0" y1="675.0" x2="105.0" y2="65.0" stroke="#458b74" fill="none"/><line x1="25.0" y1="675.0" x2="105.0" y2="115.0" stroke="#458b74" fill="none"/><line x1="25.0" y1="675.0" x2="105.0" y2="165.0" stroke="#458b74" fill="none"/><line x1="25.0" y1="675.0" x2="105.0" y2="215.0" stroke="#458b74" fill="none"/><line x1="25.0" y1="675.0" x2="105.0" y2="265.0" stroke="#458b74" fill="none"/><line x1="25.0" y1="675.0" x2="105.0" y2="315.0" stroke="#458b74" fill="none"/><line x1="25.0" y1="675.0" x2="105.0" y2="365.0" stroke="#458b74" fill="none"/><line x1="25.0" y1="675.0" x2="105.0" y2="415.0" stroke="#458b74" fill="none"/><line x1="25.0" y1="675.0" x2="105.0" y2="465.0" stroke="#458b74" fill="none"/><line x1="25.0" y1="675.0" x2="105.0" y2="515.0" stroke="#458b74" fill="none"/><line x1="25.0" y1="675.0" x2="105.0" y2="565.0" stroke="#458b74" fill="none"/><line x1="25.0" y1="675.0" x2="105.0" y2="615.0" stroke="#458b74" fill="none"/><line x1="25.0" y1="675.0" x2="105.0" y2="665.0" stroke="#458b74" fill="none"/><line x1="25.0" y1="675.0" x2="105.0" y2="715.0" stroke="#458b74" fill="none"/><line x1="25.0" y1="675.0" x2="105.0" y2="765.0" stroke="#458b74" fill="none"/><line x1="125.0" y1="15.0" x2="205.0" y2="175.0" stroke="#eedd82" fill="none"/><line x1="125.0" y1="15.0" x2="205.0" y2="225.0" stroke="#eedd82" fill="none"/><line x1="125.0" y1="15.0" x2="205.0" y2="275.0" stroke="#eedd82" fill="none"/><line x1="125.0" y1="15.0" x2="205.0" y2="325.0" stroke="#eedd82" fill="none"/><line x1="125.0" y1="15.0" x2="205.0" y2="375.0" stroke="#eedd82" fill="none"/><line x1="125.0" y1="15.0" x2="205.0" y2="425.0" stroke="#eedd82" fill="none"/><line x1="125.0" y1="15.0" x2="205.0" y2="475.0" stroke="#eedd82" fill="none"/><line x1="125.0" y1="15.0" x2="205.0" y2="525.0" stroke="#eedd82" fill="none"/><line x1="125.0" y1="65.0" x2="205.0" y2="175.0" stroke="#cdc0b0" fill="none"/><line x1="125.0" y1="65.0" x2="205.0" y2="225.0" stroke="#cdc0b0" fill="none"/><line x1="125.0" y1="65.0" x2="205.0" y2="275.0" stroke="#cdc0b0" fill="none"/><line x1="125.0" y1="65.0" x2="205.0" y2="325.0" stroke="#cdc0b0" fill="none"/><line x1="125.0" y1="65.0" x2="205.0" y2="375.0" stroke="#cdc0b0" fill="none"/><line x1="125.0" y1="65.0" x2="205.0" y2="425.0" stroke="#cdc0b0" fill="none"/><line x1="125.0" y1="65.0" x2="205.0" y2="475.0" stroke="#cdc0b0" fill="none"/><line x1="125.0" y1="65.0" x2="205.0" y2="525.0" stroke="#cdc0b0" fill="none"/><line x1="125.0" y1="115.0" x2="205.0" y2="175.0" stroke="#8a2be2" fill="none"/><line x1="125.0" y1="115.0" x2="205.0" y2="225.0" stroke="#8a2be2" fill="none"/><line x1="125.0" y1="115.0" x2="205.0" y2="275.0" stroke="#8a2be2" fill="none"/><line x1="125.0" y1="115.0" x2="205.0" y2="325.0" stroke="#8a2be2" fill="none"/><line x1="125.0" y1="115.0" x2="205.0" y2="375.0" stroke="#8a2be2" fill="none"/><line x1="125.0" y1="115.0" x2="205.0" y2="425.0" stroke="#8a2be2" fill="none"/><line x1="125.0" y1="115.0" x2="205.0" y2="475.0" stroke="#8a2be2" fill="none"/><line x1="125.0" y1="115.0" x2="205.0" y2="525.0" stroke="#8a2be2" fill="none"/><line x1="125.0" y1="165.0" x2="205.0" y2="175.0" stroke="#8b5a2b" fill="none"/><line x1="125.0" y1="165.0" x2="205.0" y2="225.0" stroke="#8b5a2b" fill="none"/><line x1="125.0" y1="165.0" x2="205.0" y2="275.0" stroke="#8b5a2b" fill="none"/><line x1="125.0" y1="165.0" x2="205.0" y2="325.0" stroke="#8b5a2b" fill="none"/><line x1="125.0" y1="165.0" x2="205.0" y2="375.0" stroke="#8b5a2b" fill="none"/><line x1="125.0" y1="165.0" x2="205.0" y2="425.0" stroke="#8b5a2b" fill="none"/><line x1="125.0" y1="165.0" x2="205.0" y2="475.0" stroke="#8b5a2b" fill="none"/><line x1="125.0" y1="165.0" x2="205.0" y2="525.0" stroke="#8b5a2b" fill="none"/><line x1="125.0" y1="215.0" x2="205.0" y2="175.0" stroke="#cdbe70" fill="none"/><line x1="125.0" y1="215.0" x2="205.0" y2="225.0" stroke="#cdbe70" fill="none"/><line x1="125.0" y1="215.0" x2="205.0" y2="275.0" stroke="#cdbe70" fill="none"/><line x1="125.0" y1="215.0" x2="205.0" y2="325.0" stroke="#cdbe70" fill="none"/><line x1="125.0" y1="215.0" x2="205.0" y2="375.0" stroke="#cdbe70" fill="none"/><line x1="125.0" y1="215.0" x2="205.0" y2="425.0" stroke="#cdbe70" fill="none"/><line x1="125.0" y1="215.0" x2="205.0" y2="475.0" stroke="#cdbe70" fill="none"/><line x1="125.0" y1="215.0" x2="205.0" y2="525.0" stroke="#cdbe70" fill="none"/><line x1="125.0" y1="265.0" x2="205.0" y2="175.0" stroke="#b452cd" fill="none"/><line x1="125.0" y1="265.0" x2="205.0" y2="225.0" stroke="#b452cd" fill="none"/><line x1="125.0" y1="265.0" x2="205.0" y2="275.0" stroke="#b452cd" fill="none"/><line x1="125.0" y1="265.0" x2="205.0" y2="325.0" stroke="#b452cd" fill="none"/><line x1="125.0" y1="265.0" x2="205.0" y2="375.0" stroke="#b452cd" fill="none"/><line x1="125.0" y1="265.0" x2="205.0" y2="425.0" stroke="#b452cd" fill="none"/><line x1="125.0" y1="265.0" x2="205.0" y2="475.0" stroke="#b452cd" fill="none"/><line x1="125.0" y1="265.0" x2="205.0" y2="525.0" stroke="#b452cd" fill="none"/><line x1="125.0" y1="315.0" x2="205.0" y2="175.0" stroke="#668b8b" fill="none"/><line x1="125.0" y1="315.0" x2="205.0" y2="225.0" stroke="#668b8b" fill="none"/><line x1="125.0" y1="315.0" x2="205.0" y2="275.0" stroke="#668b8b" fill="none"/><line x1="125.0" y1="315.0" x2="205.0" y2="325.0" stroke="#668b8b" fill="none"/><line x1="125.0" y1="315.0" x2="205.0" y2="375.0" stroke="#668b8b" fill="none"/><line x1="125.0" y1="315.0" x2="205.0" y2="425.0" stroke="#668b8b" fill="none"/><line x1="125.0" y1="315.0" x2="205.0" y2="475.0" stroke="#668b8b" fill="none"/><line x1="125.0" y1="315.0" x2="205.0" y2="525.0" stroke="#668b8b" fill="none"/><line x1="125.0" y1="365.0" x2="205.0" y2="175.0" stroke="#8b2323" fill="none"/><line x1="125.0" y1="365.0" x2="205.0" y2="225.0" stroke="#8b2323" fill="none"/><line x1="125.0" y1="365.0" x2="205.0" y2="275.0" stroke="#8b2323" fill="none"/><line x1="125.0" y1="365.0" x2="205.0" y2="325.0" stroke="#8b2323" fill="none"/><line x1="125.0" y1="365.0" x2="205.0" y2="375.0" stroke="#8b2323" fill="none"/><line x1="125.0" y1="365.0" x2="205.0" y2="425.0" stroke="#8b2323" fill="none"/><line x1="125.0" y1="365.0" x2="205.0" y2="475.0" stroke="#8b2323" fill="none"/><line x1="125.0" y1="365.0" x2="205.0" y2="525.0" stroke="#8b2323" fill="none"/><line x1="125.0" y1="415.0" x2="205.0" y2="175.0" stroke="#8b475d" fill="none"/><line x1="125.0" y1="415.0" x2="205.0" y2="225.0" stroke="#8b475d" fill="none"/><line x1="125.0" y1="415.0" x2="205.0" y2="275.0" stroke="#8b475d" fill="none"/><line x1="125.0" y1="415.0" x2="205.0" y2="325.0" stroke="#8b475d" fill="none"/><line x1="125.0" y1="415.0" x2="205.0" y2="375.0" stroke="#8b475d" fill="none"/><line x1="125.0" y1="415.0" x2="205.0" y2="425.0" stroke="#8b475d" fill="none"/><line x1="125.0" y1="415.0" x2="205.0" y2="475.0" stroke="#8b475d" fill="none"/><line x1="125.0" y1="415.0" x2="205.0" y2="525.0" stroke="#8b475d" fill="none"/><line x1="125.0" y1="465.0" x2="205.0" y2="175.0" stroke="#bcd2ee" fill="none"/><line x1="125.0" y1="465.0" x2="205.0" y2="225.0" stroke="#bcd2ee" fill="none"/><line x1="125.0" y1="465.0" x2="205.0" y2="275.0" stroke="#bcd2ee" fill="none"/><line x1="125.0" y1="465.0" x2="205.0" y2="325.0" stroke="#bcd2ee" fill="none"/><line x1="125.0" y1="465.0" x2="205.0" y2="375.0" stroke="#bcd2ee" fill="none"/><line x1="125.0" y1="465.0" x2="205.0" y2="425.0" stroke="#bcd2ee" fill="none"/><line x1="125.0" y1="465.0" x2="205.0" y2="475.0" stroke="#bcd2ee" fill="none"/><line x1="125.0" y1="465.0" x2="205.0" y2="525.0" stroke="#bcd2ee" fill="none"/><line x1="125.0" y1="515.0" x2="205.0" y2="175.0" stroke="#b8860b" fill="none"/><line x1="125.0" y1="515.0" x2="205.0" y2="225.0" stroke="#b8860b" fill="none"/><line x1="125.0" y1="515.0" x2="205.0" y2="275.0" stroke="#b8860b" fill="none"/><line x1="125.0" y1="515.0" x2="205.0" y2="325.0" stroke="#b8860b" fill="none"/><line x1="125.0" y1="515.0" x2="205.0" y2="375.0" stroke="#b8860b" fill="none"/><line x1="125.0" y1="515.0" x2="205.0" y2="425.0" stroke="#b8860b" fill="none"/><line x1="125.0" y1="515.0" x2="205.0" y2="475.0" stroke="#b8860b" fill="none"/><line x1="125.0" y1="515.0" x2="205.0" y2="525.0" stroke="#b8860b" fill="none"/><line x1="125.0" y1="565.0" x2="205.0" y2="175.0" stroke="#bff" fill="none"/><line x1="125.0" y1="565.0" x2="205.0" y2="225.0" stroke="#bff" fill="none"/><line x1="125.0" y1="565.0" x2="205.0" y2="275.0" stroke="#bff" fill="none"/><line x1="125.0" y1="565.0" x2="205.0" y2="325.0" stroke="#bff" fill="none"/><line x1="125.0" y1="565.0" x2="205.0" y2="375.0" stroke="#bff" fill="none"/><line x1="125.0" y1="565.0" x2="205.0" y2="425.0" stroke="#bff" fill="none"/><line x1="125.0" y1="565.0" x2="205.0" y2="475.0" stroke="#bff" fill="none"/><line x1="125.0" y1="565.0" x2="205.0" y2="525.0" stroke="#bff" fill="none"/><line x1="125.0" y1="615.0" x2="205.0" y2="175.0" stroke="#ff4040" fill="none"/><line x1="125.0" y1="615.0" x2="205.0" y2="225.0" stroke="#ff4040" fill="none"/><line x1="125.0" y1="615.0" x2="205.0" y2="275.0" stroke="#ff4040" fill="none"/><line x1="125.0" y1="615.0" x2="205.0" y2="325.0" stroke="#ff4040" fill="none"/><line x1="125.0" y1="615.0" x2="205.0" y2="375.0" stroke="#ff4040" fill="none"/><line x1="125.0" y1="615.0" x2="205.0" y2="425.0" stroke="#ff4040" fill="none"/><line x1="125.0" y1="615.0" x2="205.0" y2="475.0" stroke="#ff4040" fill="none"/><line x1="125.0" y1="615.0" x2="205.0" y2="525.0" stroke="#ff4040" fill="none"/><line x1="125.0" y1="665.0" x2="205.0" y2="175.0" stroke="#4a708b" fill="none"/><line x1="125.0" y1="665.0" x2="205.0" y2="225.0" stroke="#4a708b" fill="none"/><line x1="125.0" y1="665.0" x2="205.0" y2="275.0" stroke="#4a708b" fill="none"/><line x1="125.0" y1="665.0" x2="205.0" y2="325.0" stroke="#4a708b" fill="none"/><line x1="125.0" y1="665.0" x2="205.0" y2="375.0" stroke="#4a708b" fill="none"/><line x1="125.0" y1="665.0" x2="205.0" y2="425.0" stroke="#4a708b" fill="none"/><line x1="125.0" y1="665.0" x2="205.0" y2="475.0" stroke="#4a708b" fill="none"/><line x1="125.0" y1="665.0" x2="205.0" y2="525.0" stroke="#4a708b" fill="none"/><line x1="125.0" y1="715.0" x2="205.0" y2="175.0" stroke="#cd9b9b" fill="none"/><line x1="125.0" y1="715.0" x2="205.0" y2="225.0" stroke="#cd9b9b" fill="none"/><line x1="125.0" y1="715.0" x2="205.0" y2="275.0" stroke="#cd9b9b" fill="none"/><line x1="125.0" y1="715.0" x2="205.0" y2="325.0" stroke="#cd9b9b" fill="none"/><line x1="125.0" y1="715.0" x2="205.0" y2="375.0" stroke="#cd9b9b" fill="none"/><line x1="125.0" y1="715.0" x2="205.0" y2="425.0" stroke="#cd9b9b" fill="none"/><line x1="125.0" y1="715.0" x2="205.0" y2="475.0" stroke="#cd9b9b" fill="none"/><line x1="125.0" y1="715.0" x2="205.0" y2="525.0" stroke="#cd9b9b" fill="none"/><line x1="125.0" y1="765.0" x2="205.0" y2="175.0" stroke="#ee4000" fill="none"/><line x1="125.0" y1="765.0" x2="205.0" y2="225.0" stroke="#ee4000" fill="none"/><line x1="125.0" y1="765.0" x2="205.0" y2="275.0" stroke="#ee4000" fill="none"/><line x1="125.0" y1="765.0" x2="205.0" y2="325.0" stroke="#ee4000" fill="none"/><line x1="125.0" y1="765.0" x2="205.0" y2="375.0" stroke="#ee4000" fill="none"/><line x1="125.0" y1="765.0" x2="205.0" y2="425.0" stroke="#ee4000" fill="none"/><line x1="125.0" y1="765.0" x2="205.0" y2="475.0" stroke="#ee4000" fill="none"/><line x1="125.0" y1="765.0" x2="205.0" y2="525.0" stroke="#ee4000" fill="none"/><line x1="225.0" y1="175.0" x2="305.0" y2="255.0" stroke="#c0ff3e" fill="none"/><line x1="225.0" y1="175.0" x2="305.0" y2="305.0" stroke="#c0ff3e" fill="none"/><line x1="225.0" y1="175.0" x2="305.0" y2="355.0" stroke="#c0ff3e" fill="none"/><line x1="225.0" y1="175.0" x2="305.0" y2="405.0" stroke="#c0ff3e" fill="none"/><line x1="225.0" y1="225.0" x2="305.0" y2="255.0" stroke="#fff68f" fill="none"/><line x1="225.0" y1="225.0" x2="305.0" y2="305.0" stroke="#fff68f" fill="none"/><line x1="225.0" y1="225.0" x2="305.0" y2="355.0" stroke="#fff68f" fill="none"/><line x1="225.0" y1="225.0" x2="305.0" y2="405.0" stroke="#fff68f" fill="none"/><line x1="225.0" y1="275.0" x2="305.0" y2="255.0" stroke="#eec591" fill="none"/><line x1="225.0" y1="275.0" x2="305.0" y2="305.0" stroke="#eec591" fill="none"/><line x1="225.0" y1="275.0" x2="305.0" y2="355.0" stroke="#eec591" fill="none"/><line x1="225.0" y1="275.0" x2="305.0" y2="405.0" stroke="#eec591" fill="none"/><line x1="225.0" y1="325.0" x2="305.0" y2="255.0" stroke="#8b8b83" fill="none"/><line x1="225.0" y1="325.0" x2="305.0" y2="305.0" stroke="#8b8b83" fill="none"/><line x1="225.0" y1="325.0" x2="305.0" y2="355.0" stroke="#8b8b83" fill="none"/><line x1="225.0" y1="325.0" x2="305.0" y2="405.0" stroke="#8b8b83" fill="none"/><line x1="225.0" y1="375.0" x2="305.0" y2="255.0" stroke="#8b8878" fill="none"/><line x1="225.0" y1="375.0" x2="305.0" y2="305.0" stroke="#8b8878" fill="none"/><line x1="225.0" y1="375.0" x2="305.0" y2="355.0" stroke="#8b8878" fill="none"/><line x1="225.0" y1="375.0" x2="305.0" y2="405.0" stroke="#8b8878" fill="none"/><line x1="225.0" y1="425.0" x2="305.0" y2="255.0" stroke="#eeb4b4" fill="none"/><line x1="225.0" y1="425.0" x2="305.0" y2="305.0" stroke="#eeb4b4" fill="none"/><line x1="225.0" y1="425.0" x2="305.0" y2="355.0" stroke="#eeb4b4" fill="none"/><line x1="225.0" y1="425.0" x2="305.0" y2="405.0" stroke="#eeb4b4" fill="none"/><line x1="225.0" y1="475.0" x2="305.0" y2="255.0" stroke="#fbf" fill="none"/><line x1="225.0" y1="475.0" x2="305.0" y2="305.0" stroke="#fbf" fill="none"/><line x1="225.0" y1="475.0" x2="305.0" y2="355.0" stroke="#fbf" fill="none"/><line x1="225.0" y1="475.0" x2="305.0" y2="405.0" stroke="#fbf" fill="none"/><line x1="225.0" y1="525.0" x2="305.0" y2="255.0" stroke="#f5f5f5" fill="none"/><line x1="225.0" y1="525.0" x2="305.0" y2="305.0" stroke="#f5f5f5" fill="none"/><line x1="225.0" y1="525.0" x2="305.0" y2="355.0" stroke="#f5f5f5" fill="none"/><line x1="225.0" y1="525.0" x2="305.0" y2="405.0" stroke="#f5f5f5" fill="none"/></svg>