<?xml version="1.0" ?><!DOCTYPE svg  PUBLIC '-//W3C//DTD SVG 1.1//EN'  'http://www.w3.org/Graphics/SVG/1.1/DTD/svg11.dtd'><svg xmlns="http://www.w3.org/2000/svg" width="242.000" height="142.000" viewBox="-6.000 -6.000 242.000 142.000"><circle cx="15.0" cy="35.0" r="10.0" stroke="#000" fill="#cd9b9b"/><circle cx="15.0" cy="85.0" r="10.0" stroke="#000" fill="#cdaa7d"/><circle cx="115.0" cy="15.0" r="10.0" stroke="#000" fill="#c71585"/><circle cx="115.0" cy="65.0" r="10.0" stroke="#000" fill="#ee30a7"/><circle cx="115.0" cy="115.0" r="10.0" stroke="#000" fill="#ff3030"/><circle cx="215.0" cy="35.0" r="10.0" stroke="#000" fill="#1874cd"/><circle cx="215.0" cy="85.0" r="10.0" stroke="#000" fill="#e066ff"/><line x1="25.0" y1="35.0" x2="105.0" y2="15.0" stroke="#cd9b9b" fill="none"/><line x1="25.0" y1="35.0" x2="105.0" y2="65.0" stroke="#cd9b9b" fill="none"/><line x1="25.0" y1="35.0" x2="105.0" y2="115.0" stroke="#cd9b9b" fill="none"/><line x1="25.0" y1="85.0" x2="105.0" y2="15.0" stroke="#cdaa7d" fill="none"/><line x1="25.0" y1="85.0" x2="105.0" y2="65.0" stroke="#cdaa7d" fill="none"/><line x1="25.0" y1="85.0" x2="105.0" y2="115.0" stroke="#cdaa7d" fill="none"/><line x1="125.0" y1="15.0" x2="205.0" y2="35.0" stroke="#c71585" fill="none"/><line x1="125.0" y1="15.0" x2="205.0" y2="85.0" stroke="#c71585" fill="none"/><line x1="125.0" y1="65.0" x2="205.0" y2="35.0" stroke="#ee30a7" fill="none"/><line x1="125.0" y1="65.0" x2="205.0" y2="85.0" stroke="#ee30a7" fill="none"/><line x1="125.0" y1="115.0" x2="205.0" y2="35.0" stroke="#ff3030" fill="none"/><line x1="125.0" y1="115.0" x2="205.0" y2="85.0" stroke="#ff3030" fill="none"/></svg>